<?xml version="1.0" encoding="UTF-8"?>
<svg width="421px" height="329px" viewBox="0 0 421 329" version="1.1" xmlns="http://www.w3.org/2000/svg" xmlns:xlink="http://www.w3.org/1999/xlink">
    <!-- Generator: Sketch 52.6 (67491) - http://www.bohemiancoding.com/sketch -->
    <title>Group 13@3x</title>
    <desc>Created with Sketch.</desc>
    <defs>
        <polygon id="path-1" points="9 5.4 8.3655 4.7655 5.85 7.2765 5.85 1.8 4.95 1.8 4.95 7.2765 2.439 4.761 1.8 5.4 5.4 9"></polygon>
        <rect id="path-3" x="0" y="0" width="23" height="23"></rect>
        <polygon id="path-5" points="9 5.4 8.3655 4.7655 5.85 7.2765 5.85 1.8 4.95 1.8 4.95 7.2765 2.439 4.761 1.8 5.4 5.4 9"></polygon>
        <rect id="path-7" x="0" y="0" width="23" height="23"></rect>
        <circle id="path-9" cx="308.7" cy="150.2" r="3.6"></circle>
        <circle id="path-10" cx="326.7" cy="106.1" r="3.6"></circle>
    </defs>
    <g id="Page-1" stroke="none" stroke-width="1" fill="none" fill-rule="evenodd">
        <g id="Desktop-Copy" transform="translate(-39.000000, -1935.000000)">
            <g id="Group-13" transform="translate(39.000000, 1935.000000)">
                <path d="M191.181432,171.197378 L261.498656,205.103052 C262.0807,205.383703 262.325027,206.083055 262.044376,206.665099 C262.035047,206.684446 262.025188,206.703533 262.014808,206.722337 L252.155142,224.584692 C251.844559,225.147363 251.138258,225.354171 250.57324,225.04788 L182.92577,188.376938 C182.378586,188.080315 182.159413,187.407217 182.427033,186.845279 L189.616944,171.748192 C189.894781,171.1648 190.592946,170.9171 191.176338,171.194937 C191.178038,171.195747 191.179736,171.19656 191.181432,171.197378 Z" id="Path-10" stroke="#D0D7DF" fill-rule="nonzero"></path>
                <path d="M195.087986,167.635926 L283.040103,211.123472 C283.614658,211.407558 284.310832,211.176481 284.601474,210.605215 L298.12407,184.026139 C298.41708,183.450218 298.187736,182.74581 297.611815,182.4528 C297.607633,182.450672 297.603438,182.44857 297.59923,182.446492 L235.707828,151.889886 C235.427684,151.751575 235.103858,151.731053 234.808494,151.832893 L195.225184,165.481029 C194.614303,165.691658 194.289834,166.357623 194.500463,166.968504 C194.600841,167.259626 194.811944,167.499438 195.087986,167.635926 Z" id="Path-11" stroke="#D0D7DF" fill-rule="nonzero"></path>
                <path d="M243.896558,150.817263 L300.099634,178.2165 C300.680152,178.499516 301.380194,178.25863 301.663642,177.678323 L329.440785,120.811792 C329.724383,120.231178 329.483604,119.530597 328.90299,119.246999 C328.621829,119.109667 328.297372,119.090681 328.002112,119.194283 L244.021893,148.661576 C243.412166,148.87552 243.091319,149.543237 243.305263,150.152965 C243.40724,150.443595 243.619705,150.682291 243.896558,150.817263 Z" id="Path-13" stroke="#D0D7DF" fill-rule="nonzero"></path>
                <path d="M166.245078,131.453815 C166.876542,143.237999 166.600477,151.941729 165.416884,157.565004 C164.26701,163.028077 162.413069,168.738134 159.85506,174.695176 L159.855066,174.695178 C159.600104,175.288928 158.912088,175.56357 158.318338,175.308608 C158.256499,175.282054 158.197066,175.250214 158.140701,175.213441 L126.3213,154.454741 C122.474564,152.171901 120.551196,149.538654 120.551196,146.555 C120.551196,143.571346 123.951586,141.294939 130.752368,139.725778 L164.766989,130.388134 C165.390125,130.217072 166.03395,130.583551 166.205012,131.206687 C166.227167,131.287393 166.2406,131.370244 166.245078,131.453815 Z" id="Path-14" stroke="#D0D7DF" fill-rule="nonzero"></path>
                <path d="M289.554299,214.272529 L320.379474,228.539098 C320.965886,228.810503 321.661284,228.555139 321.932689,227.968726 C321.955653,227.91911 321.97511,227.867944 321.990919,227.815607 L332.842302,191.889671 C333.029141,191.271099 332.679153,190.618185 332.060581,190.431346 C331.95087,190.398208 331.836886,190.381369 331.722279,190.381369 L314.759353,190.381369 L304.656311,184.918399 C304.087912,184.611052 303.377979,184.822676 303.070632,185.391074 C303.066973,185.397842 303.06338,185.404645 303.059855,185.411483 L289.005767,212.674642 C288.70969,213.248993 288.935276,213.954613 289.509627,214.250689 C289.524361,214.258285 289.539255,214.265566 289.554299,214.272529 Z" id="Path-15" stroke="#D0D7DF" fill-rule="nonzero"></path>
                <path d="M307.963264,178.250614 L328.685921,137.825244 L349.54274,144.141657 L334.56634,183.058697 C334.392498,183.510435 333.958437,183.808488 333.474404,183.808488 L316.775894,183.808488 C316.595544,183.808488 316.417635,183.766795 316.256064,183.686666 L308.484607,179.832513 C307.905714,179.545419 307.669165,178.843398 307.956259,178.264505 C307.958563,178.259859 307.960898,178.255229 307.963264,178.250614 Z" id="Path-16" stroke="#D0D7DF" fill-rule="nonzero"></path>
                <path d="M165.724858,179.795113 L176.372205,185.380532 C176.944424,185.680708 177.651639,185.460174 177.951816,184.887956 C177.957653,184.876828 177.963311,184.865607 177.968786,184.854297 L184.894559,170.549778 C185.176147,169.968187 184.932945,169.268442 184.351354,168.986855 C184.025752,168.82921 183.645538,168.831048 183.321477,168.991835 L165.748357,177.710936 C165.169516,177.998134 164.933093,178.700198 165.220291,179.279039 C165.329893,179.499937 165.506487,179.680559 165.724858,179.795113 Z" id="Path-18" stroke="#D0D7DF" fill-rule="nonzero"></path>
                <path d="M409.867097,243.956603 C386.03741,243.836481 368.369029,242.922628 356.861954,241.215045 C345.354879,239.507461 336.23645,236.446307 329.506669,232.031581 L339.790446,192.890993 C339.930011,192.3598 340.42027,191.997185 340.969048,192.019252 L409.867097,194.78973" id="Path" stroke="#D0D7DF" fill-rule="nonzero"></path>
                <path d="M409.257583,189.683172 L345.20708,185.776829 C344.562105,185.737493 344.071138,185.18275 344.110474,184.537775 C344.117964,184.414957 344.144782,184.294089 344.189938,184.179628 L369.317117,120.487505 C374.574503,105.826228 378.885079,95.8900684 382.248845,90.6790257 C385.61261,85.467983 394.615523,80.4888497 409.257583,75.7416257" id="Path" stroke="#D0D7DF" fill-rule="nonzero"></path>
                <path d="M267.074132,209.97324 L257.658498,227.352777 C257.416149,227.800109 257.490656,228.352781 257.842812,228.719967 C264.065337,235.208063 270.610189,240.540798 277.477368,244.718173 C284.416665,248.939418 295.136024,253.548879 309.635446,258.546556 L309.635454,258.546532 C310.165955,258.729386 310.751573,258.509851 311.031138,258.023324 L322.579487,237.925727 C322.901423,237.365462 322.708219,236.650297 322.147954,236.328361 C322.128786,236.317346 322.109309,236.306877 322.089547,236.296967 L268.627371,209.484725 C268.062647,209.201506 267.375073,209.417757 267.074132,209.97324 Z" id="Path-28" stroke="#D0D7DF" fill-rule="nonzero"></path>
                <path d="M171.153563,128.130026 L232.290996,108.848085 C232.896569,108.657095 233.543945,108.983991 233.749751,109.584691 L245.021231,142.483506 C245.230667,143.0948 244.904896,143.760133 244.293602,143.969569 C244.280685,143.973994 244.267692,143.978193 244.254629,143.982164 C226.125,149.492504 212.476153,153.807461 203.30809,156.927033 C194.388307,159.962124 182.906158,164.180776 168.861643,169.58299 L168.861646,169.582996 C168.258546,169.814978 167.581579,169.514128 167.349597,168.911029 C167.263221,168.68647 167.248174,168.440741 167.306507,168.207321 C169.761199,158.384837 171.066957,151.167396 171.22378,146.555 C171.384478,141.828648 171.090765,136.10203 170.34264,129.375146 L170.342665,129.375144 C170.280892,128.819701 170.620576,128.298123 171.153563,128.130026 Z" id="Path-7" stroke="#D0D7DF" fill-rule="nonzero"></path>
                <path d="M238.27493,108.171054 L249.264272,140.196887 C249.473997,140.808079 250.139481,141.133532 250.750673,140.923808 C250.759323,140.92084 250.767939,140.91777 250.776517,140.9146 L264.532183,135.830936 C265.122587,135.612741 265.434561,134.966552 265.238222,134.368525 L254.743556,102.403001 C254.541995,101.789069 253.880907,101.454776 253.266975,101.656337 C253.25894,101.658975 253.250935,101.6617 253.24296,101.664511 L238.992617,106.687865 C238.386797,106.901422 238.066444,107.56347 238.27493,108.171054 Z" id="Path-12" stroke="#D0D7DF" fill-rule="nonzero"></path>
                <path d="M259.175841,100.235777 L270.191748,133.029597 C270.397509,133.642135 271.06087,133.971894 271.673408,133.766134 C271.683577,133.762718 271.693699,133.759162 271.70377,133.755468 L285.169933,128.815843 C285.76899,128.596099 286.081502,127.936881 285.872411,127.334023 L274.482288,94.493548 C274.270548,93.8830514 273.603994,93.5597951 272.993497,93.7715347 C272.982423,93.7753756 272.971408,93.7793826 272.960454,93.7835545 L259.868507,98.7698334 C259.281587,98.9933712 258.975853,99.6404215 259.175841,100.235777 Z" id="Path-17" stroke="#D0D7DF" fill-rule="nonzero"></path>
                <path d="M278.936232,92.3121949 L290.741154,124.871829 C290.961404,125.479308 291.632409,125.793219 292.239888,125.57297 C292.24326,125.571747 292.246626,125.570509 292.249987,125.569256 L333.724196,110.099205 C334.655623,109.751779 335.129049,108.715065 334.781623,107.783638 C334.77205,107.757975 334.761894,107.732535 334.75116,107.707336 L318.264425,69.000714 L279.461229,90.8944065 C278.963386,91.1753015 278.741394,91.7748049 278.936232,92.3121949 Z" id="Path-29" stroke="#D0D7DF" fill-rule="nonzero"></path>
                <path d="M359.361167,37.5875 C353.850855,42.7209867 348.906596,46.9243426 344.528391,50.1975676 C340.272348,53.3794624 333.449974,58.0009487 324.061268,64.0620265 L324.061282,64.0620483 C323.588785,64.3670791 323.400171,64.9651365 323.612186,65.4860467 L340.496456,106.969895 C340.721317,107.522367 341.32579,107.817238 341.899603,107.654371 C354.321091,104.128755 361.857464,101.235311 364.508724,98.9740389 C370.200974,94.1190912 368.408455,89.0600094 380.122794,81.2392463 C383.94497,78.687473 391.645785,75.0335705 403.225238,70.2775389 L403.225239,70.2775411" id="Shape" stroke="#D0D7DF" fill-rule="nonzero"></path>
                <path d="M326.261641,239.269749 L315.539207,259.544042 C315.237113,260.11525 315.455273,260.823201 316.026481,261.125296 C316.163858,261.19795 316.314332,261.242508 316.469119,261.256369 L380.363974,266.977945 C381.007571,267.035577 381.576031,266.560557 381.633663,265.91696 C381.642903,265.813768 381.638396,265.709806 381.620261,265.607801 L378.934037,250.499068 C378.838429,249.961321 378.383486,249.561266 377.837928,249.535203 C365.283554,248.935446 355.947722,247.97156 349.830432,246.643545 C343.794139,245.333115 336.444447,242.702667 327.781355,238.752203 L327.781359,238.752195 C327.217655,238.49514 326.551287,238.722078 326.261641,239.269749 Z" id="Path-19" stroke="#D0D7DF" fill-rule="nonzero"></path>
                <path d="M409.586669,249.497472 C409.586669,248.851299 409.062842,248.327472 408.416669,248.327472 C408.392541,248.327472 408.36842,248.328219 408.344338,248.32971 L383.668134,249.858136 C383.023196,249.898083 382.532755,250.453291 382.572702,251.098228 C382.576087,251.152877 382.583304,251.207221 382.594299,251.260859 L385.426533,265.0768 C385.544945,265.654429 386.07469,266.053683 386.662589,266.008381 L408.50656,264.325128 C409.11606,264.278161 409.586669,263.769893 409.586669,263.158586" id="Path" stroke="#D0D7DF" fill-rule="nonzero"></path>
                <path d="M59.8567571,151.67375 L125.611888,197.110007 C126.143494,197.477342 126.276661,198.206078 125.909326,198.737684 C125.816646,198.871809 125.696959,198.985085 125.557939,199.070247 L59.8567571,239.318124" id="Shape" stroke="#EBEDF0" stroke-width="1.17" fill-rule="nonzero"></path>
                <path d="M60.3753061,246.633358 L132.615901,203.67793 C133.004077,203.447115 133.490434,203.460311 133.865524,203.711834 C152.636034,216.298784 167.684193,226.075029 179.01,233.04057 C190.294038,239.980422 207.687395,250.28171 231.190071,263.944433 L231.190076,263.944426 C231.748718,264.269179 231.938322,264.985313 231.613569,265.543955 C231.609103,265.551637 231.60455,265.559268 231.59991,265.566847 L199.90972,317.329194" id="Path" stroke="#EBEDF0" stroke-width="1.17" fill-rule="nonzero"></path>
                <path d="M210.115423,320.125106 L237.163778,267.647225 C237.459817,267.072863 238.165416,266.847239 238.739777,267.143278 C238.773557,267.160689 238.806468,267.179736 238.838394,267.20035 C252.464212,275.998318 262.766775,282.198142 269.746085,285.799821 C276.462791,289.265983 283.468427,292.063281 290.762991,294.191714 L290.762984,294.191738 C291.383277,294.372729 291.739402,295.022299 291.558411,295.642593 C291.530543,295.738102 291.490606,295.829666 291.439567,295.915069 L272.007875,328.430091" id="Path" stroke="#EBEDF0" stroke-width="1.17" fill-rule="nonzero"></path>
                <path d="M409.76078,314.98555 L409.76078,291.447364 C383.227564,295.888002 363.311004,298.31902 350.0111,298.740418 C336.876938,299.156564 319.942861,298.232517 299.20887,295.968276 C298.733512,295.916385 298.274409,296.158973 298.049442,296.58093 L281.116528,328.341073" id="Path" stroke="#EBEDF0" stroke-width="1.17" fill-rule="nonzero"></path>
                <path d="M60.895211,95.9217852 C73.739538,100.255543 83.8094102,102.813086 91.1048275,103.594415 C102.047954,104.766409 107.204997,104.633093 123.997944,102.68 C134.809907,101.422521 145.4637,99.2783557 155.959324,96.2475032 L155.959334,96.2475394 C156.577252,96.0691013 156.935294,95.4253697 156.760957,94.8062821 L137.636405,26.8930809" id="Path" stroke="#EBEDF0" fill-rule="nonzero"></path>
                <path d="M144.464966,24.8173087 L163.100778,93.7389826 C163.269441,94.3627555 163.911837,94.7316952 164.53561,94.5630325 C164.543064,94.561017 164.550498,94.5589278 164.55791,94.5567651 L220.505166,78.2338762 C221.125478,78.0528972 221.481627,77.403323 221.300648,76.7830115 C221.30045,76.7823337 221.300252,76.7816561 221.300053,76.7809786 L200.568975,6.2" id="Path" stroke="#EBEDF0" fill-rule="nonzero"></path>
                <path d="M207.288185,4.4 L226.747585,74.4073406 C226.920636,75.0299104 227.565614,75.3943174 228.188184,75.2212665 C228.216759,75.2133237 228.245022,75.2042973 228.272911,75.1942068 L245.019114,69.1352782 C245.612762,68.9204908 245.928957,68.2734695 245.733657,67.6731282 L224.449163,2.24574907" id="Shape" stroke="#EBEDF0" fill-rule="nonzero"></path>
                <path d="M229.978995,1.50561747 L250.144158,65.2270588 C250.339115,65.84312 250.996576,66.1844919 251.612637,65.9895344 C251.63446,65.9826283 251.656076,65.9750832 251.677456,65.966909 L261.753277,62.1147017 C262.321929,61.8972934 262.628832,61.2801313 262.459019,60.6954985 L245.266673,1.50561747" id="Path" stroke="#EBEDF0" fill-rule="nonzero"></path>
                <path d="M251.239452,0.212661928 L267.334399,58.1507119 C267.507354,58.7733081 268.152275,59.1378146 268.774872,58.96486 C268.811486,58.9546887 268.847583,58.9427395 268.883035,58.9290551 C278.121256,55.3630665 286.128032,51.5679648 292.903364,47.54375 C299.971438,43.3456605 314.830058,35.3824636 337.479224,23.6541593" id="Path" stroke="#EBEDF0" fill-rule="nonzero"></path>
                <text id="ALLEGHENY-RIVER" transform="translate(200.493967, 100.424650) rotate(-17.000000) translate(-200.493967, -100.424650) " font-family="Gotham-Medium, Gotham" font-size="7" font-weight="400" fill="#C2CAD2">
                    <tspan x="165.493967" y="102.92465">ALLEGHENY RIVER</tspan>
                </text>
                <text id="MONONGAHELA-RIVER" transform="translate(192.232244, 217.889204) rotate(31.000000) translate(-192.232244, -217.889204) " font-family="Gotham-Medium, Gotham" font-size="7" font-weight="400" fill="#C2CAD2">
                    <tspan x="149.732244" y="220.389204">MONONGAHELA RIVER</tspan>
                </text>
                <g id="Group-8" transform="translate(112.500000, 37.600000)">
                    <circle id="Oval" fill="#363A57" fill-rule="nonzero" cx="124.2" cy="10.9" r="3.6"></circle>
                    <g id="Group-2-Copy-3">
                        <rect id="Rectangle" fill="#9AA7B4" fill-rule="nonzero" transform="translate(58.184372, 8.508387) scale(-1, 1) rotate(-2.000000) translate(-58.184372, -8.508387) " x="1.03437229" y="2.60838736" width="114.3" height="11.8"></rect>
                        <text id="Andy-Warhol-Museum" font-family="TiemposHeadline-Regular, Tiempos Headline" font-size="9.9" font-weight="normal" fill="#FFFFFF">
                            <tspan x="3.6" y="10.9">Andy Warhol Museum</tspan>
                        </text>
                    </g>
                </g>
                <g id="Group-8-Copy-3" transform="translate(191.800000, 174.500000)">
                    <circle id="Oval" fill="#363A57" fill-rule="nonzero" cx="58.4" cy="8.1" r="3.6"></circle>
                    <g id="Group-2-Copy-3">
                        <g id="Group-12">
                            <rect id="Rectangle" fill="#9AA7B4" fill-rule="nonzero" transform="translate(25.270422, 7.507586) scale(-1, 1) rotate(-2.000000) translate(-25.270422, -7.507586) " x="1.02042223" y="1.60758583" width="48.5" height="11.8"></rect>
                            <text id="Primantis" font-family="TiemposHeadline-Regular, Tiempos Headline" font-size="9.9" font-weight="normal" fill="#FFFFFF">
                                <tspan x="2.7" y="10.9">Primantis</tspan>
                            </text>
                        </g>
                    </g>
                </g>
                <g id="Group-11" transform="translate(136.000000, 139.000000)">
                    <circle id="Oval" fill="#363A57" fill-rule="nonzero" cx="4.4" cy="10.3" r="3.6"></circle>
                    <g id="Group-2-Copy-3" transform="translate(10.700000, 0.986756)">
                        <rect id="Rectangle" fill="#9AA7B4" fill-rule="nonzero" transform="translate(39.062016, 7.989199) scale(-1, 1) rotate(-2.000000) translate(-39.062016, -7.989199) " x="1.01201564" y="2.08919889" width="76.1" height="11.8"></rect>
                        <text id="Point-State-Park" font-family="TiemposHeadline-Regular, Tiempos Headline" font-size="9.9" font-weight="normal" fill="#FFFFFF">
                            <tspan x="2.7" y="10.9">Point State Park</tspan>
                        </text>
                    </g>
                </g>
                <g id="Group-11-Copy" transform="translate(301.000000, 236.020511)">
                    <circle id="Oval" fill="#363A57" fill-rule="nonzero" cx="4.4" cy="10.3" r="3.6"></circle>
                    <g id="Group-2-Copy-3" transform="translate(10.700000, 0.986756)">
                        <rect id="Rectangle" fill="#9AA7B4" fill-rule="nonzero" transform="translate(55.052269, 8.547591) scale(-1, 1) rotate(-2.000000) translate(-55.052269, -8.547591) " x="1.00226887" y="2.64759083" width="108.1" height="11.8"></rect>
                        <text id="Golden-Triangle-Rent" font-family="TiemposHeadline-Regular, Tiempos Headline" font-size="9.9" font-weight="normal" fill="#FFFFFF">
                            <tspan x="2.7" y="10.9">Golden Triangle Rentals</tspan>
                        </text>
                    </g>
                </g>
                <g id="Group-8-Copy-4" transform="translate(205.200000, 264.733937)">
                    <circle id="Oval" fill="#363A57" fill-rule="nonzero" cx="3.6" cy="5.4" r="3.6"></circle>
                    <g id="Group-2-Copy-3" transform="translate(9.900000, 0.000000)">
                        <rect id="Rectangle" fill="#9AA7B4" fill-rule="nonzero" transform="translate(35.582788, 7.699126) scale(-1, 1) rotate(-2.000000) translate(-35.582788, -7.699126) " x="1.03278844" y="1.79912605" width="69.1" height="11.8"></rect>
                        <text id="Station-Square" font-family="TiemposHeadline-Regular, Tiempos Headline" font-size="9.9" font-weight="normal" fill="#FFFFFF">
                            <tspan x="3.6" y="10.8">Station Square</tspan>
                        </text>
                    </g>
                </g>
                <g id="Group-9" transform="translate(46.800000, 218.800000)">
                    <rect id="Rectangle" fill="#6D7883" fill-rule="nonzero" transform="translate(38.118155, 29.898913) scale(-1, 1) rotate(35.000000) translate(-38.118155, -29.898913) " x="-2.73184492" y="23.1489133" width="81.7" height="13.5"></rect>
                    <text id="PIT-(18-miles)" transform="translate(43.149058, 25.696219) rotate(-35.000000) translate(-43.149058, -25.696219) " font-family="TiemposHeadline-Regular, Tiempos Headline" font-size="9.9" font-weight="normal" fill="#FFFFFF">
                        <tspan x="12.2990585" y="28.6962191">PIT (18 miles)</tspan>
                    </text>
                    <g id="ic_arrow_downward" transform="translate(11.120734, 48.720734) rotate(55.000000) translate(-11.120734, -48.720734) translate(5.720734, 43.320734)">
                        <mask id="mask-2" fill="white">
                            <use xlink:href="#path-1"></use>
                        </mask>
                        <g id="Mask"></g>
                        <g id="Colors/White" mask="url(#mask-2)">
                            <g transform="translate(-5.850000, -5.850000)">
                                <mask id="mask-4" fill="white">
                                    <use xlink:href="#path-3"></use>
                                </mask>
                                <use id="White" stroke="none" fill="#FFFFFF" fill-rule="evenodd" xlink:href="#path-3"></use>
                            </g>
                        </g>
                    </g>
                </g>
                <g id="Group-10" transform="translate(0.000000, 162.800000)">
                    <rect id="Rectangle" fill="#6D7883" fill-rule="nonzero" transform="translate(41.723745, 8.429768) scale(-1, 1) rotate(-2.000000) translate(-41.723745, -8.429768) " x="0.823744954" y="1.67976846" width="81.8" height="13.5"></rect>
                    <text id="SFO-(2k-miles)" font-family="TiemposHeadline-Regular, Tiempos Headline" font-size="9.9" font-weight="normal" fill="#FFFFFF">
                        <tspan x="16.2927557" y="10.7189317">SFO (2k miles)</tspan>
                    </text>
                    <g id="ic_arrow_downward" transform="translate(7.870002, 8.061447) rotate(90.000000) translate(-7.870002, -8.061447) translate(2.470002, 2.661447)">
                        <mask id="mask-6" fill="white">
                            <use xlink:href="#path-5"></use>
                        </mask>
                        <g id="Mask"></g>
                        <g id="Colors/White" mask="url(#mask-6)">
                            <g transform="translate(-5.850000, -5.850000)">
                                <mask id="mask-8" fill="white">
                                    <use xlink:href="#path-7"></use>
                                </mask>
                                <use id="White" stroke="none" fill="#FFFFFF" fill-rule="evenodd" xlink:href="#path-7"></use>
                            </g>
                        </g>
                    </g>
                </g>
                <g id="Group-8-Copy-5" transform="translate(23.700000, 191.500000)">
                    <circle id="Oval" fill="#363A57" fill-rule="nonzero" cx="90.6" cy="9.1" r="3.6"></circle>
                    <g id="Group-2-Copy-3">
                        <rect id="Rectangle" fill="#9AA7B4" fill-rule="nonzero" transform="translate(42.354912, 8.396161) scale(-1, 1) rotate(-2.000000) translate(-42.354912, -8.396161) " x="1.00491209" y="1.59616071" width="82.7" height="13.6"></rect>
                        <text id="Duquense-Incline" font-family="TiemposHeadline-Regular, Tiempos Headline" font-size="9.9" font-weight="normal" fill="#FFFFFF">
                            <tspan x="4.5" y="10.9">Duquense Incline</tspan>
                        </text>
                    </g>
                </g>
                <path d="M341.816485,113.697548 L362.70104,109.331423 C363.187578,109.229708 363.664451,109.541668 363.766167,110.028205 C363.802342,110.201239 363.786758,110.381095 363.721361,110.545329 L353.470225,136.289242 C353.310274,136.690929 352.887291,136.922116 352.462829,136.839848 L332.82892,133.034475 C332.340944,132.939898 332.022032,132.467645 332.11661,131.97967 C332.132729,131.896503 332.160509,131.816029 332.199128,131.74063 L341.199618,114.168215 C341.32358,113.926194 341.550319,113.753193 341.816485,113.697548 Z" id="Path-44" fill="#363A57" fill-rule="nonzero"></path>
                <g id="Group-2" transform="translate(362.000000, 117.000000)">
                    <rect id="Rectangle" fill="#F6AAAA" fill-rule="nonzero" transform="translate(28.069790, 7.414738) rotate(3.000000) translate(-28.069790, -7.414738) " x="1.01978978" y="1.96473786" width="54.1" height="10.9"></rect>
                    <text id="The-Venue" font-family="TiemposHeadline-Regular, Tiempos Headline" font-size="9.9" font-weight="normal" fill="#FFFFFF">
                        <tspan x="5.4" y="10">The Venue</tspan>
                    </text>
                </g>
                <g id="Group-2-Copy" transform="translate(261.000000, 96.000000)">
                    <rect id="Rectangle" fill="#CBD2BF" fill-rule="nonzero" transform="translate(29.068419, 7.967074) rotate(3.000000) translate(-29.068419, -7.967074) " x="1.01841931" y="2.01707382" width="56.1" height="11.9"></rect>
                    <text id="The-Westin" font-family="TiemposHeadline-Regular, Tiempos Headline" font-size="9.9" font-weight="normal" fill="#FFFFFF">
                        <tspan x="2.7" y="11">The Westin</tspan>
                    </text>
                </g>
                <g id="Group-2-Copy-2" transform="translate(317.700000, 143.056380)">
                    <rect id="Rectangle" fill="#CBD2BF" fill-rule="nonzero" transform="translate(35.279657, 7.937919) rotate(3.000000) translate(-35.279657, -7.937919) " x="1.02965713" y="2.48791898" width="68.5" height="10.9"></rect>
                    <text id="Hotel-Monaco" font-family="TiemposHeadline-Regular, Tiempos Headline" font-size="9.9" font-weight="normal" fill="#FFFFFF">
                        <tspan x="4.5" y="10.9">Hotel Monaco</tspan>
                    </text>
                </g>
                <circle id="Oval" stroke="#363A57" stroke-width="0.9" fill="#FFFFFF" fill-rule="nonzero" cx="347.6" cy="123.6" r="3.6"></circle>
                <g id="Oval" fill-rule="nonzero">
                    <use stroke="#363A57" stroke-width="2.7" fill="#363A57" xlink:href="#path-9"></use>
                    <use stroke="#FFFFFF" stroke-width="0.9" xlink:href="#path-9"></use>
                </g>
                <g id="Oval" fill-rule="nonzero">
                    <use stroke="#363A57" stroke-width="2.7" fill="#363A57" xlink:href="#path-10"></use>
                    <use stroke="#FFFFFF" stroke-width="0.9" xlink:href="#path-10"></use>
                </g>
            </g>
        </g>
    </g>
</svg>